<svg width="356" height="138" viewBox="0 0 356 138" fill="none" xmlns="http://www.w3.org/2000/svg">
<path d="M0.837717 2.12428H21.8657V56.606H44.4231V2.12428H65.4511V135.939H44.4231V75.7224H21.8657V135.939H0.837717V2.12428ZM107.683 137.851C97.3605 137.851 89.4591 134.919 83.9791 129.057C78.499 123.195 75.759 114.911 75.759 104.206V33.8575C75.759 23.1523 78.499 14.8685 83.9791 9.00618C89.4591 3.14383 97.3605 0.212647 107.683 0.212647C118.006 0.212647 125.908 3.14383 131.388 9.00618C136.868 14.8685 139.608 23.1523 139.608 33.8575V104.206C139.608 114.911 136.868 123.195 131.388 129.057C125.908 134.919 118.006 137.851 107.683 137.851ZM107.683 118.734C114.948 118.734 118.58 114.337 118.58 105.544V32.5193C118.58 23.7258 114.948 19.329 107.683 19.329C100.419 19.329 96.787 23.7258 96.787 32.5193V105.544C96.787 114.337 100.419 118.734 107.683 118.734ZM180.4 137.851C170.077 137.851 162.176 134.919 156.696 129.057C151.216 123.195 148.476 114.911 148.476 104.206V33.8575C148.476 23.1523 151.216 14.8685 156.696 9.00618C162.176 3.14383 170.077 0.212647 180.4 0.212647C190.723 0.212647 198.625 3.14383 204.105 9.00618C209.585 14.8685 212.325 23.1523 212.325 33.8575V104.206C212.325 114.911 209.585 123.195 204.105 129.057C198.625 134.919 190.723 137.851 180.4 137.851ZM180.4 118.734C187.665 118.734 191.297 114.337 191.297 105.544V32.5193C191.297 23.7258 187.665 19.329 180.4 19.329C173.136 19.329 169.504 23.7258 169.504 32.5193V105.544C169.504 114.337 173.136 118.734 180.4 118.734ZM252.544 137.851C242.348 137.851 234.574 134.983 229.222 129.248C223.869 123.386 221.193 115.038 221.193 104.206V33.8575C221.193 23.0249 223.869 14.7411 229.222 9.00618C234.574 3.14383 242.348 0.212647 252.544 0.212647C262.739 0.212647 270.513 3.14383 275.866 9.00618C281.218 14.7411 283.895 23.0249 283.895 33.8575V45.3273H264.014V32.5193C264.014 23.7258 260.381 19.329 253.117 19.329C245.853 19.329 242.221 23.7258 242.221 32.5193V105.735C242.221 114.401 245.853 118.734 253.117 118.734C260.381 118.734 264.014 114.401 264.014 105.735V79.5456H253.5V60.4293H283.895V104.206C283.895 115.038 281.218 123.386 275.866 129.248C270.513 134.983 262.739 137.851 252.544 137.851ZM323.967 137.851C313.644 137.851 305.743 134.919 300.263 129.057C294.783 123.195 292.043 114.911 292.043 104.206V33.8575C292.043 23.1523 294.783 14.8685 300.263 9.00618C305.743 3.14383 313.644 0.212647 323.967 0.212647C334.29 0.212647 342.192 3.14383 347.672 9.00618C353.152 14.8685 355.892 23.1523 355.892 33.8575V104.206C355.892 114.911 353.152 123.195 347.672 129.057C342.192 134.919 334.29 137.851 323.967 137.851ZM323.967 118.734C331.232 118.734 334.864 114.337 334.864 105.544V32.5193C334.864 23.7258 331.232 19.329 323.967 19.329C316.703 19.329 313.071 23.7258 313.071 32.5193V105.544C313.071 114.337 316.703 118.734 323.967 118.734Z" fill="#1ED45E"/>
</svg>
