<svg width="356" height="138" viewBox="0 0 356 138" fill="none" xmlns="http://www.w3.org/2000/svg">
<path d="M0.837717 2.18532H21.8657V56.667H44.4231V2.18532H65.4511V136H44.4231V75.7834H21.8657V136H0.837717V2.18532ZM107.683 137.912C97.3605 137.912 89.4591 134.98 83.9791 129.118C78.499 123.256 75.759 114.972 75.759 104.267V33.9185C75.759 23.2133 78.499 14.9296 83.9791 9.06722C89.4591 3.20486 97.3605 0.273682 107.683 0.273682C118.006 0.273682 125.908 3.20486 131.388 9.06722C136.868 14.9296 139.608 23.2133 139.608 33.9185V104.267C139.608 114.972 136.868 123.256 131.388 129.118C125.908 134.98 118.006 137.912 107.683 137.912ZM107.683 118.795C114.948 118.795 118.58 114.398 118.58 105.605V32.5804C118.58 23.7868 114.948 19.3901 107.683 19.3901C100.419 19.3901 96.787 23.7868 96.787 32.5804V105.605C96.787 114.398 100.419 118.795 107.683 118.795ZM180.4 137.912C170.077 137.912 162.176 134.98 156.696 129.118C151.216 123.256 148.476 114.972 148.476 104.267V33.9185C148.476 23.2133 151.216 14.9296 156.696 9.06722C162.176 3.20486 170.077 0.273682 180.4 0.273682C190.723 0.273682 198.625 3.20486 204.105 9.06722C209.585 14.9296 212.325 23.2133 212.325 33.9185V104.267C212.325 114.972 209.585 123.256 204.105 129.118C198.625 134.98 190.723 137.912 180.4 137.912ZM180.4 118.795C187.665 118.795 191.297 114.398 191.297 105.605V32.5804C191.297 23.7868 187.665 19.3901 180.4 19.3901C173.136 19.3901 169.504 23.7868 169.504 32.5804V105.605C169.504 114.398 173.136 118.795 180.4 118.795ZM252.544 137.912C242.348 137.912 234.574 135.044 229.222 129.309C223.869 123.447 221.193 115.099 221.193 104.267V33.9185C221.193 23.0859 223.869 14.8021 229.222 9.06722C234.574 3.20486 242.348 0.273682 252.544 0.273682C262.739 0.273682 270.513 3.20486 275.866 9.06722C281.218 14.8021 283.895 23.0859 283.895 33.9185V45.3883H264.014V32.5804C264.014 23.7868 260.381 19.3901 253.117 19.3901C245.853 19.3901 242.221 23.7868 242.221 32.5804V105.796C242.221 114.462 245.853 118.795 253.117 118.795C260.381 118.795 264.014 114.462 264.014 105.796V79.6067H253.5V60.4903H283.895V104.267C283.895 115.099 281.218 123.447 275.866 129.309C270.513 135.044 262.739 137.912 252.544 137.912ZM323.967 137.912C313.644 137.912 305.743 134.98 300.263 129.118C294.783 123.256 292.043 114.972 292.043 104.267V33.9185C292.043 23.2133 294.783 14.9296 300.263 9.06722C305.743 3.20486 313.644 0.273682 323.967 0.273682C334.29 0.273682 342.192 3.20486 347.672 9.06722C353.152 14.9296 355.892 23.2133 355.892 33.9185V104.267C355.892 114.972 353.152 123.256 347.672 129.118C342.192 134.98 334.29 137.912 323.967 137.912ZM323.967 118.795C331.232 118.795 334.864 114.398 334.864 105.605V32.5804C334.864 23.7868 331.232 19.3901 323.967 19.3901C316.703 19.3901 313.071 23.7868 313.071 32.5804V105.605C313.071 114.398 316.703 118.795 323.967 118.795Z" fill="white"/>
</svg>
